<svg width="811" height="550" viewBox="0 0 811 550" fill="none" xmlns="http://www.w3.org/2000/svg">
<path d="M39 0H781C797.569 0 811 13.4315 811 30V506C811 522.569 797.569 536 781 536H39V0Z" fill="#D1D99E"/>
<path d="M23 14H765C781.569 14 795 27.4315 795 44V520C795 536.569 781.569 550 765 550H23V14Z" fill="#F4FEB8"/>
<path d="M67 54.875C67 58.5687 64.2632 62.5469 58.4407 65.7746C52.7212 68.9452 44.6163 71 35.5 71C26.3837 71 18.2788 68.9452 12.5593 65.7746C6.73682 62.5469 4 58.5687 4 54.875C4 51.1813 6.73682 47.2031 12.5593 43.9754C18.2788 40.8048 26.3837 38.75 35.5 38.75C44.6163 38.75 52.7212 40.8048 58.4407 43.9754C64.2632 47.2031 67 51.1813 67 54.875Z" stroke="#530A0A" stroke-width="6"/>
<path d="M23.4026 23H61.9351V37.5893C61.9351 43.1121 57.4579 47.5893 51.9351 47.5893H23.4026V23Z" fill="#F4FEB8"/>
<ellipse cx="58.7987" cy="44.4018" rx="3.13636" ry="3.1875" fill="#530A0A"/>
<path d="M66 130.25C66 133.81 63.3026 137.698 57.4626 140.872C51.7385 143.983 43.6256 146 34.5 146C25.3744 146 17.2615 143.983 11.5374 140.872C5.69739 137.698 3 133.81 3 130.25C3 126.69 5.69739 122.802 11.5374 119.628C17.2615 116.517 25.3744 114.5 34.5 114.5C43.6256 114.5 51.7385 116.517 57.4626 119.628C63.3026 122.802 66 126.69 66 130.25Z" stroke="#530A0A" stroke-width="6"/>
<path d="M22.4026 99H60.9351V113.107C60.9351 118.63 56.4579 123.107 50.9351 123.107H22.4026V99Z" fill="#F4FEB8"/>
<ellipse cx="57.7987" cy="119.982" rx="3.13636" ry="3.125" fill="#530A0A"/>
<path d="M66 206.25C66 209.81 63.3026 213.698 57.4626 216.872C51.7385 219.983 43.6256 222 34.5 222C25.3744 222 17.2615 219.983 11.5374 216.872C5.69739 213.698 3 209.81 3 206.25C3 202.69 5.69739 198.802 11.5374 195.628C17.2615 192.517 25.3744 190.5 34.5 190.5C43.6256 190.5 51.7385 192.517 57.4626 195.628C63.3026 198.802 66 202.69 66 206.25Z" stroke="#530A0A" stroke-width="6"/>
<path d="M22.4026 175H60.9351V189.107C60.9351 194.63 56.4579 199.107 50.9351 199.107H22.4026V175Z" fill="#F4FEB8"/>
<ellipse cx="57.7987" cy="195.982" rx="3.13636" ry="3.125" fill="#530A0A"/>
<path d="M66 281.875C66 285.569 63.2632 289.547 57.4407 292.775C51.7212 295.945 43.6163 298 34.5 298C25.3837 298 17.2788 295.945 11.5593 292.775C5.73682 289.547 3 285.569 3 281.875C3 278.181 5.73682 274.203 11.5593 270.975C17.2788 267.805 25.3837 265.75 34.5 265.75C43.6163 265.75 51.7212 267.805 57.4407 270.975C63.2632 274.203 66 278.181 66 281.875Z" stroke="#530A0A" stroke-width="6"/>
<path d="M22.4026 250H60.9351V264.589C60.9351 270.112 56.4579 274.589 50.9351 274.589H22.4026V250Z" fill="#F4FEB8"/>
<ellipse cx="57.7987" cy="271.402" rx="3.13636" ry="3.1875" fill="#530A0A"/>
<path d="M66 357.25C66 360.81 63.3026 364.698 57.4626 367.872C51.7385 370.983 43.6256 373 34.5 373C25.3744 373 17.2615 370.983 11.5374 367.872C5.69739 364.698 3 360.81 3 357.25C3 353.69 5.69739 349.802 11.5374 346.628C17.2615 343.517 25.3744 341.5 34.5 341.5C43.6256 341.5 51.7385 343.517 57.4626 346.628C63.3026 349.802 66 353.69 66 357.25Z" stroke="#530A0A" stroke-width="6"/>
<path d="M22.4026 326H60.9351V340.107C60.9351 345.63 56.4579 350.107 50.9351 350.107H22.4026V326Z" fill="#F4FEB8"/>
<ellipse cx="57.7987" cy="346.982" rx="3.13636" ry="3.125" fill="#530A0A"/>
<path d="M66 432.875C66 436.569 63.2632 440.547 57.4407 443.775C51.7212 446.945 43.6163 449 34.5 449C25.3837 449 17.2788 446.945 11.5593 443.775C5.73682 440.547 3 436.569 3 432.875C3 429.181 5.73682 425.203 11.5593 421.975C17.2788 418.805 25.3837 416.75 34.5 416.75C43.6163 416.75 51.7212 418.805 57.4407 421.975C63.2632 425.203 66 429.181 66 432.875Z" stroke="#530A0A" stroke-width="6"/>
<path d="M22.4026 401H60.9351V415.589C60.9351 421.112 56.4579 425.589 50.9351 425.589H22.4026V401Z" fill="#F4FEB8"/>
<ellipse cx="57.7987" cy="422.402" rx="3.13636" ry="3.1875" fill="#530A0A"/>
<path d="M66 508.25C66 511.81 63.3026 515.698 57.4626 518.872C51.7385 521.983 43.6256 524 34.5 524C25.3744 524 17.2615 521.983 11.5374 518.872C5.69739 515.698 3 511.81 3 508.25C3 504.69 5.69739 500.802 11.5374 497.628C17.2615 494.517 25.3744 492.5 34.5 492.5C43.6256 492.5 51.7385 494.517 57.4626 497.628C63.3026 500.802 66 504.69 66 508.25Z" stroke="#530A0A" stroke-width="6"/>
<path d="M22.4026 477H60.9351V491.107C60.9351 496.63 56.4579 501.107 50.9351 501.107H22.4026V477Z" fill="#F4FEB8"/>
<ellipse cx="57.7987" cy="497.982" rx="3.13636" ry="3.125" fill="#530A0A"/>
</svg>
