<svg width="654" height="550" viewBox="0 0 654 550" fill="none" xmlns="http://www.w3.org/2000/svg">
<path d="M38 0H624C640.569 0 654 13.4315 654 30V506C654 522.569 640.569 536 624 536H38V0Z" fill="#D1D99E"/>
<path d="M22 14H608C624.569 14 638 27.4315 638 44V520C638 536.569 624.569 550 608 550H22V14Z" fill="#F4FEB8"/>
<path d="M52 47.5C52 49.3337 50.5898 51.6601 46.8309 53.703C43.1879 55.6829 37.9499 57 32 57C26.0501 57 20.8121 55.6829 17.1691 53.703C13.4102 51.6601 12 49.3337 12 47.5C12 45.6663 13.4102 43.3399 17.1691 41.297C20.8121 39.3171 26.0501 38 32 38C37.9499 38 43.1879 39.3171 46.8309 41.297C50.5898 43.3399 52 45.6663 52 47.5Z" stroke="#530A0A" stroke-width="6"/>
<path d="M22 23H55V38C55 43.5228 50.5228 48 45 48H22V23Z" fill="#F4FEB8"/>
<circle cx="51" cy="44" r="4" fill="#530A0A"/>
<path d="M52 84.0196C52 85.7549 50.6301 88.0249 46.8527 90.0375C43.205 91.9811 37.959 93.2745 32 93.2745C26.041 93.2745 20.795 91.9811 17.1473 90.0375C13.3699 88.0249 12 85.7549 12 84.0196C12 82.2843 13.3699 80.0144 17.1473 78.0017C20.795 76.0581 26.041 74.7647 32 74.7647C37.959 74.7647 43.205 76.0581 46.8527 78.0017C50.6301 80.0144 52 82.2843 52 84.0196Z" stroke="#530A0A" stroke-width="6"/>
<path d="M22 60H55V74.5098C55 80.0327 50.5228 84.5098 45 84.5098H22V60Z" fill="#F4FEB8"/>
<ellipse cx="51" cy="80.5882" rx="4" ry="3.92157" fill="#530A0A"/>
<path d="M52 123.02C52 124.755 50.6301 127.025 46.8527 129.038C43.205 130.981 37.959 132.275 32 132.275C26.041 132.275 20.795 130.981 17.1473 129.038C13.3699 127.025 12 124.755 12 123.02C12 121.284 13.3699 119.014 17.1473 117.002C20.795 115.058 26.041 113.765 32 113.765C37.959 113.765 43.205 115.058 46.8527 117.002C50.6301 119.014 52 121.284 52 123.02Z" stroke="#530A0A" stroke-width="6"/>
<path d="M22 99H55V113.51C55 119.033 50.5228 123.51 45 123.51H22V99Z" fill="#F4FEB8"/>
<ellipse cx="51" cy="119.588" rx="4" ry="3.92157" fill="#530A0A"/>
<path d="M52 161.5C52 163.334 50.5898 165.66 46.8309 167.703C43.1879 169.683 37.9499 171 32 171C26.0501 171 20.8121 169.683 17.1691 167.703C13.4102 165.66 12 163.334 12 161.5C12 159.666 13.4102 157.34 17.1691 155.297C20.8121 153.317 26.0501 152 32 152C37.9499 152 43.1879 153.317 46.8309 155.297C50.5898 157.34 52 159.666 52 161.5Z" stroke="#530A0A" stroke-width="6"/>
<path d="M22 137H55V152C55 157.523 50.5228 162 45 162H22V137Z" fill="#F4FEB8"/>
<circle cx="51" cy="158" r="4" fill="#530A0A"/>
<path d="M52 201.02C52 202.755 50.6301 205.025 46.8527 207.038C43.205 208.981 37.959 210.275 32 210.275C26.041 210.275 20.795 208.981 17.1473 207.038C13.3699 205.025 12 202.755 12 201.02C12 199.284 13.3699 197.014 17.1473 195.002C20.795 193.058 26.041 191.765 32 191.765C37.959 191.765 43.205 193.058 46.8527 195.002C50.6301 197.014 52 199.284 52 201.02Z" stroke="#530A0A" stroke-width="6"/>
<path d="M22 177H55V191.51C55 197.033 50.5228 201.51 45 201.51H22V177Z" fill="#F4FEB8"/>
<ellipse cx="51" cy="197.588" rx="4" ry="3.92157" fill="#530A0A"/>
<path d="M52 279.02C52 280.755 50.6301 283.025 46.8527 285.038C43.205 286.981 37.959 288.275 32 288.275C26.041 288.275 20.795 286.981 17.1473 285.038C13.3699 283.025 12 280.755 12 279.02C12 277.284 13.3699 275.014 17.1473 273.002C20.795 271.058 26.041 269.765 32 269.765C37.959 269.765 43.205 271.058 46.8527 273.002C50.6301 275.014 52 277.284 52 279.02Z" stroke="#530A0A" stroke-width="6"/>
<path d="M22 255H55V269.51C55 275.033 50.5228 279.51 45 279.51H22V255Z" fill="#F4FEB8"/>
<ellipse cx="51" cy="275.588" rx="4" ry="3.92157" fill="#530A0A"/>
<path d="M52 239.02C52 240.755 50.6301 243.025 46.8527 245.038C43.205 246.981 37.959 248.275 32 248.275C26.041 248.275 20.795 246.981 17.1473 245.038C13.3699 243.025 12 240.755 12 239.02C12 237.284 13.3699 235.014 17.1473 233.002C20.795 231.058 26.041 229.765 32 229.765C37.959 229.765 43.205 231.058 46.8527 233.002C50.6301 235.014 52 237.284 52 239.02Z" stroke="#530A0A" stroke-width="6"/>
<path d="M22 215H55V229.51C55 235.033 50.5228 239.51 45 239.51H22V215Z" fill="#F4FEB8"/>
<ellipse cx="51" cy="235.588" rx="4" ry="3.92157" fill="#530A0A"/>
<path d="M52 318.5C52 320.334 50.5898 322.66 46.8309 324.703C43.1879 326.683 37.9499 328 32 328C26.0501 328 20.8121 326.683 17.1691 324.703C13.4102 322.66 12 320.334 12 318.5C12 316.666 13.4102 314.34 17.1691 312.297C20.8121 310.317 26.0501 309 32 309C37.9499 309 43.1879 310.317 46.8309 312.297C50.5898 314.34 52 316.666 52 318.5Z" stroke="#530A0A" stroke-width="6"/>
<path d="M22 294H55V309C55 314.523 50.5228 319 45 319H22V294Z" fill="#F4FEB8"/>
<circle cx="51" cy="315" r="4" fill="#530A0A"/>
<path d="M52 357.02C52 358.755 50.6301 361.025 46.8527 363.038C43.205 364.981 37.959 366.275 32 366.275C26.041 366.275 20.795 364.981 17.1473 363.038C13.3699 361.025 12 358.755 12 357.02C12 355.284 13.3699 353.014 17.1473 351.002C20.795 349.058 26.041 347.765 32 347.765C37.959 347.765 43.205 349.058 46.8527 351.002C50.6301 353.014 52 355.284 52 357.02Z" stroke="#530A0A" stroke-width="6"/>
<path d="M22 333H55V347.51C55 353.033 50.5228 357.51 45 357.51H22V333Z" fill="#F4FEB8"/>
<ellipse cx="51" cy="353.588" rx="4" ry="3.92157" fill="#530A0A"/>
<path d="M52 397.02C52 398.755 50.6301 401.025 46.8527 403.038C43.205 404.981 37.959 406.275 32 406.275C26.041 406.275 20.795 404.981 17.1473 403.038C13.3699 401.025 12 398.755 12 397.02C12 395.284 13.3699 393.014 17.1473 391.002C20.795 389.058 26.041 387.765 32 387.765C37.959 387.765 43.205 389.058 46.8527 391.002C50.6301 393.014 52 395.284 52 397.02Z" stroke="#530A0A" stroke-width="6"/>
<path d="M22 373H55V387.51C55 393.033 50.5228 397.51 45 397.51H22V373Z" fill="#F4FEB8"/>
<ellipse cx="51" cy="393.588" rx="4" ry="3.92157" fill="#530A0A"/>
<path d="M52 436.02C52 437.755 50.6301 440.025 46.8527 442.038C43.205 443.981 37.959 445.275 32 445.275C26.041 445.275 20.795 443.981 17.1473 442.038C13.3699 440.025 12 437.755 12 436.02C12 434.284 13.3699 432.014 17.1473 430.002C20.795 428.058 26.041 426.765 32 426.765C37.959 426.765 43.205 428.058 46.8527 430.002C50.6301 432.014 52 434.284 52 436.02Z" stroke="#530A0A" stroke-width="6"/>
<path d="M22 412H55V426.51C55 432.033 50.5228 436.51 45 436.51H22V412Z" fill="#F4FEB8"/>
<ellipse cx="51" cy="432.588" rx="4" ry="3.92157" fill="#530A0A"/>
<path d="M52 475.02C52 476.755 50.6301 479.025 46.8527 481.038C43.205 482.981 37.959 484.275 32 484.275C26.041 484.275 20.795 482.981 17.1473 481.038C13.3699 479.025 12 476.755 12 475.02C12 473.284 13.3699 471.014 17.1473 469.002C20.795 467.058 26.041 465.765 32 465.765C37.959 465.765 43.205 467.058 46.8527 469.002C50.6301 471.014 52 473.284 52 475.02Z" stroke="#530A0A" stroke-width="6"/>
<path d="M22 451H55V465.51C55 471.033 50.5228 475.51 45 475.51H22V451Z" fill="#F4FEB8"/>
<ellipse cx="51" cy="471.588" rx="4" ry="3.92157" fill="#530A0A"/>
<path d="M52 515.02C52 516.755 50.6301 519.025 46.8527 521.038C43.205 522.981 37.959 524.275 32 524.275C26.041 524.275 20.795 522.981 17.1473 521.038C13.3699 519.025 12 516.755 12 515.02C12 513.284 13.3699 511.014 17.1473 509.002C20.795 507.058 26.041 505.765 32 505.765C37.959 505.765 43.205 507.058 46.8527 509.002C50.6301 511.014 52 513.284 52 515.02Z" stroke="#530A0A" stroke-width="6"/>
<path d="M22 491H55V505.51C55 511.033 50.5228 515.51 45 515.51H22V491Z" fill="#F4FEB8"/>
<ellipse cx="51" cy="511.588" rx="4" ry="3.92157" fill="#530A0A"/>
</svg>
