<svg width="1411" height="794" viewBox="0 0 1411 794" fill="none" xmlns="http://www.w3.org/2000/svg">
<rect width="465" height="794" rx="30" fill="#D1D9FF"/>
<rect x="481" width="930" height="794" rx="30" fill="#FAFFDB"/>
<path d="M494 104C494 106.902 492.059 109.856 488.224 112.191C484.423 114.504 479.046 116 473 116C466.954 116 461.577 114.504 457.776 112.191C453.941 109.856 452 106.902 452 104C452 101.098 453.941 98.1436 457.776 95.8089C461.577 93.4958 466.954 92 473 92C479.046 92 484.423 93.4958 488.224 95.8089C492.059 98.1436 494 101.098 494 104Z" stroke="#530A0A" stroke-width="4"/>
<path d="M481 83H482.5C487.194 83 491 86.8056 491 91.5C491 96.1944 487.194 100 482.5 100H481V83Z" fill="#F4FEB8"/>
<circle cx="488.5" cy="96.5" r="2.5" fill="#530A0A"/>
<path d="M453 90C453 85.5817 456.582 82 461 82H466V100H463C457.477 100 453 95.5228 453 90Z" fill="#D1D9FF"/>
<rect x="465" y="80" width="16" height="20" fill="#495073"/>
<circle cx="456.5" cy="96.5" r="2.5" fill="#530A0A"/>
<path d="M494 50C494 52.9017 492.059 55.8564 488.224 58.1911C484.423 60.5042 479.046 62 473 62C466.954 62 461.577 60.5042 457.776 58.1911C453.941 55.8564 452 52.9017 452 50C452 47.0983 453.941 44.1436 457.776 41.8089C461.577 39.4958 466.954 38 473 38C479.046 38 484.423 39.4958 488.224 41.8089C492.059 44.1436 494 47.0983 494 50Z" stroke="#530A0A" stroke-width="4"/>
<path d="M481 29H482.5C487.194 29 491 32.8056 491 37.5C491 42.1944 487.194 46 482.5 46H481V29Z" fill="#F4FEB8"/>
<circle cx="488.5" cy="42.5" r="2.5" fill="#530A0A"/>
<path d="M453 36C453 31.5817 456.582 28 461 28H466V46H463C457.477 46 453 41.5228 453 36Z" fill="#D1D9FF"/>
<rect x="465" y="26" width="16" height="20" fill="#495073"/>
<circle cx="456.5" cy="42.5" r="2.5" fill="#530A0A"/>
<path d="M494 158C494 160.902 492.059 163.856 488.224 166.191C484.423 168.504 479.046 170 473 170C466.954 170 461.577 168.504 457.776 166.191C453.941 163.856 452 160.902 452 158C452 155.098 453.941 152.144 457.776 149.809C461.577 147.496 466.954 146 473 146C479.046 146 484.423 147.496 488.224 149.809C492.059 152.144 494 155.098 494 158Z" stroke="#530A0A" stroke-width="4"/>
<path d="M481 137H482.5C487.194 137 491 140.806 491 145.5C491 150.194 487.194 154 482.5 154H481V137Z" fill="#F4FEB8"/>
<circle cx="488.5" cy="150.5" r="2.5" fill="#530A0A"/>
<path d="M453 144C453 139.582 456.582 136 461 136H466V154H463C457.477 154 453 149.523 453 144Z" fill="#D1D9FF"/>
<rect x="465" y="134" width="16" height="20" fill="#495073"/>
<circle cx="456.5" cy="150.5" r="2.5" fill="#530A0A"/>
<path d="M494 212C494 214.902 492.059 217.856 488.224 220.191C484.423 222.504 479.046 224 473 224C466.954 224 461.577 222.504 457.776 220.191C453.941 217.856 452 214.902 452 212C452 209.098 453.941 206.144 457.776 203.809C461.577 201.496 466.954 200 473 200C479.046 200 484.423 201.496 488.224 203.809C492.059 206.144 494 209.098 494 212Z" stroke="#530A0A" stroke-width="4"/>
<path d="M481 191H482.5C487.194 191 491 194.806 491 199.5C491 204.194 487.194 208 482.5 208H481V191Z" fill="#F4FEB8"/>
<circle cx="488.5" cy="204.5" r="2.5" fill="#530A0A"/>
<path d="M453 198C453 193.582 456.582 190 461 190H466V208H463C457.477 208 453 203.523 453 198Z" fill="#D1D9FF"/>
<rect x="465" y="188" width="16" height="20" fill="#495073"/>
<circle cx="456.5" cy="204.5" r="2.5" fill="#530A0A"/>
<path d="M494 266C494 268.902 492.059 271.856 488.224 274.191C484.423 276.504 479.046 278 473 278C466.954 278 461.577 276.504 457.776 274.191C453.941 271.856 452 268.902 452 266C452 263.098 453.941 260.144 457.776 257.809C461.577 255.496 466.954 254 473 254C479.046 254 484.423 255.496 488.224 257.809C492.059 260.144 494 263.098 494 266Z" stroke="#530A0A" stroke-width="4"/>
<path d="M481 245H482.5C487.194 245 491 248.806 491 253.5C491 258.194 487.194 262 482.5 262H481V245Z" fill="#F4FEB8"/>
<circle cx="488.5" cy="258.5" r="2.5" fill="#530A0A"/>
<path d="M453 252C453 247.582 456.582 244 461 244H466V262H463C457.477 262 453 257.523 453 252Z" fill="#D1D9FF"/>
<rect x="465" y="242" width="16" height="20" fill="#495073"/>
<circle cx="456.5" cy="258.5" r="2.5" fill="#530A0A"/>
<path d="M494 320C494 322.902 492.059 325.856 488.224 328.191C484.423 330.504 479.046 332 473 332C466.954 332 461.577 330.504 457.776 328.191C453.941 325.856 452 322.902 452 320C452 317.098 453.941 314.144 457.776 311.809C461.577 309.496 466.954 308 473 308C479.046 308 484.423 309.496 488.224 311.809C492.059 314.144 494 317.098 494 320Z" stroke="#530A0A" stroke-width="4"/>
<path d="M481 299H482.5C487.194 299 491 302.806 491 307.5C491 312.194 487.194 316 482.5 316H481V299Z" fill="#F4FEB8"/>
<circle cx="488.5" cy="312.5" r="2.5" fill="#530A0A"/>
<path d="M453 306C453 301.582 456.582 298 461 298H466V316H463C457.477 316 453 311.523 453 306Z" fill="#D1D9FF"/>
<rect x="465" y="296" width="16" height="20" fill="#495073"/>
<circle cx="456.5" cy="312.5" r="2.5" fill="#530A0A"/>
<path d="M494 374C494 376.902 492.059 379.856 488.224 382.191C484.423 384.504 479.046 386 473 386C466.954 386 461.577 384.504 457.776 382.191C453.941 379.856 452 376.902 452 374C452 371.098 453.941 368.144 457.776 365.809C461.577 363.496 466.954 362 473 362C479.046 362 484.423 363.496 488.224 365.809C492.059 368.144 494 371.098 494 374Z" stroke="#530A0A" stroke-width="4"/>
<path d="M481 353H482.5C487.194 353 491 356.806 491 361.5C491 366.194 487.194 370 482.5 370H481V353Z" fill="#F4FEB8"/>
<circle cx="488.5" cy="366.5" r="2.5" fill="#530A0A"/>
<path d="M453 360C453 355.582 456.582 352 461 352H466V370H463C457.477 370 453 365.523 453 360Z" fill="#D1D9FF"/>
<rect x="465" y="350" width="16" height="20" fill="#495073"/>
<circle cx="456.5" cy="366.5" r="2.5" fill="#530A0A"/>
<path d="M494 428C494 430.902 492.059 433.856 488.224 436.191C484.423 438.504 479.046 440 473 440C466.954 440 461.577 438.504 457.776 436.191C453.941 433.856 452 430.902 452 428C452 425.098 453.941 422.144 457.776 419.809C461.577 417.496 466.954 416 473 416C479.046 416 484.423 417.496 488.224 419.809C492.059 422.144 494 425.098 494 428Z" stroke="#530A0A" stroke-width="4"/>
<path d="M481 407H482.5C487.194 407 491 410.806 491 415.5C491 420.194 487.194 424 482.5 424H481V407Z" fill="#F4FEB8"/>
<circle cx="488.5" cy="420.5" r="2.5" fill="#530A0A"/>
<path d="M453 414C453 409.582 456.582 406 461 406H466V424H463C457.477 424 453 419.523 453 414Z" fill="#D1D9FF"/>
<rect x="465" y="404" width="16" height="20" fill="#495073"/>
<circle cx="456.5" cy="420.5" r="2.5" fill="#530A0A"/>
<path d="M494 482C494 484.902 492.059 487.856 488.224 490.191C484.423 492.504 479.046 494 473 494C466.954 494 461.577 492.504 457.776 490.191C453.941 487.856 452 484.902 452 482C452 479.098 453.941 476.144 457.776 473.809C461.577 471.496 466.954 470 473 470C479.046 470 484.423 471.496 488.224 473.809C492.059 476.144 494 479.098 494 482Z" stroke="#530A0A" stroke-width="4"/>
<path d="M481 461H482.5C487.194 461 491 464.806 491 469.5C491 474.194 487.194 478 482.5 478H481V461Z" fill="#F4FEB8"/>
<circle cx="488.5" cy="474.5" r="2.5" fill="#530A0A"/>
<path d="M453 468C453 463.582 456.582 460 461 460H466V478H463C457.477 478 453 473.523 453 468Z" fill="#D1D9FF"/>
<rect x="465" y="458" width="16" height="20" fill="#495073"/>
<circle cx="456.5" cy="474.5" r="2.5" fill="#530A0A"/>
<path d="M494 536C494 538.902 492.059 541.856 488.224 544.191C484.423 546.504 479.046 548 473 548C466.954 548 461.577 546.504 457.776 544.191C453.941 541.856 452 538.902 452 536C452 533.098 453.941 530.144 457.776 527.809C461.577 525.496 466.954 524 473 524C479.046 524 484.423 525.496 488.224 527.809C492.059 530.144 494 533.098 494 536Z" stroke="#530A0A" stroke-width="4"/>
<path d="M481 515H482.5C487.194 515 491 518.806 491 523.5C491 528.194 487.194 532 482.5 532H481V515Z" fill="#F4FEB8"/>
<circle cx="488.5" cy="528.5" r="2.5" fill="#530A0A"/>
<path d="M453 522C453 517.582 456.582 514 461 514H466V532H463C457.477 532 453 527.523 453 522Z" fill="#D1D9FF"/>
<rect x="465" y="512" width="16" height="20" fill="#495073"/>
<circle cx="456.5" cy="528.5" r="2.5" fill="#530A0A"/>
<path d="M494 590C494 592.902 492.059 595.856 488.224 598.191C484.423 600.504 479.046 602 473 602C466.954 602 461.577 600.504 457.776 598.191C453.941 595.856 452 592.902 452 590C452 587.098 453.941 584.144 457.776 581.809C461.577 579.496 466.954 578 473 578C479.046 578 484.423 579.496 488.224 581.809C492.059 584.144 494 587.098 494 590Z" stroke="#530A0A" stroke-width="4"/>
<path d="M481 569H482.5C487.194 569 491 572.806 491 577.5C491 582.194 487.194 586 482.5 586H481V569Z" fill="#F4FEB8"/>
<circle cx="488.5" cy="582.5" r="2.5" fill="#530A0A"/>
<path d="M453 576C453 571.582 456.582 568 461 568H466V586H463C457.477 586 453 581.523 453 576Z" fill="#D1D9FF"/>
<rect x="465" y="566" width="16" height="20" fill="#495073"/>
<circle cx="456.5" cy="582.5" r="2.5" fill="#530A0A"/>
<path d="M494 644C494 646.902 492.059 649.856 488.224 652.191C484.423 654.504 479.046 656 473 656C466.954 656 461.577 654.504 457.776 652.191C453.941 649.856 452 646.902 452 644C452 641.098 453.941 638.144 457.776 635.809C461.577 633.496 466.954 632 473 632C479.046 632 484.423 633.496 488.224 635.809C492.059 638.144 494 641.098 494 644Z" stroke="#530A0A" stroke-width="4"/>
<path d="M481 623H482.5C487.194 623 491 626.806 491 631.5C491 636.194 487.194 640 482.5 640H481V623Z" fill="#F4FEB8"/>
<circle cx="488.5" cy="636.5" r="2.5" fill="#530A0A"/>
<path d="M453 630C453 625.582 456.582 622 461 622H466V640H463C457.477 640 453 635.523 453 630Z" fill="#D1D9FF"/>
<rect x="465" y="620" width="16" height="20" fill="#495073"/>
<circle cx="456.5" cy="636.5" r="2.5" fill="#530A0A"/>
<path d="M494 698C494 700.902 492.059 703.856 488.224 706.191C484.423 708.504 479.046 710 473 710C466.954 710 461.577 708.504 457.776 706.191C453.941 703.856 452 700.902 452 698C452 695.098 453.941 692.144 457.776 689.809C461.577 687.496 466.954 686 473 686C479.046 686 484.423 687.496 488.224 689.809C492.059 692.144 494 695.098 494 698Z" stroke="#530A0A" stroke-width="4"/>
<path d="M481 677H482.5C487.194 677 491 680.806 491 685.5C491 690.194 487.194 694 482.5 694H481V677Z" fill="#F4FEB8"/>
<circle cx="488.5" cy="690.5" r="2.5" fill="#530A0A"/>
<path d="M453 684C453 679.582 456.582 676 461 676H466V694H463C457.477 694 453 689.523 453 684Z" fill="#D1D9FF"/>
<rect x="465" y="674" width="16" height="20" fill="#495073"/>
<circle cx="456.5" cy="690.5" r="2.5" fill="#530A0A"/>
<path d="M494 752C494 754.902 492.059 757.856 488.224 760.191C484.423 762.504 479.046 764 473 764C466.954 764 461.577 762.504 457.776 760.191C453.941 757.856 452 754.902 452 752C452 749.098 453.941 746.144 457.776 743.809C461.577 741.496 466.954 740 473 740C479.046 740 484.423 741.496 488.224 743.809C492.059 746.144 494 749.098 494 752Z" stroke="#530A0A" stroke-width="4"/>
<path d="M481 731H482.5C487.194 731 491 734.806 491 739.5C491 744.194 487.194 748 482.5 748H481V731Z" fill="#F4FEB8"/>
<circle cx="488.5" cy="744.5" r="2.5" fill="#530A0A"/>
<path d="M453 738C453 733.582 456.582 730 461 730H466V748H463C457.477 748 453 743.523 453 738Z" fill="#D1D9FF"/>
<rect x="465" y="728" width="16" height="20" fill="#495073"/>
<circle cx="456.5" cy="744.5" r="2.5" fill="#530A0A"/>
</svg>
