<svg width="268" height="76" viewBox="0 0 268 76" fill="none" xmlns="http://www.w3.org/2000/svg">
<rect x="1" y="1" width="58" height="74" rx="21" fill="#FCFFEA" stroke="black" stroke-width="2" stroke-dasharray="4 4"/>
<rect x="210" y="1" width="57" height="74" rx="21" fill="#FCFFEA" stroke="black" stroke-width="2" stroke-dasharray="4 4"/>
<rect x="71" y="1" width="57" height="74" rx="21" fill="#FCFFEA" stroke="black" stroke-width="2" stroke-dasharray="4 4"/>
<path d="M140 54C140 54.6941 140.034 55.3806 140.1 56.058L141.095 55.9611C141.224 57.2854 141.482 58.5718 141.856 59.8077L140.899 60.0976C141.302 61.4263 141.832 62.6991 142.477 63.9018L143.358 63.4296C143.979 64.5888 144.711 65.6797 145.539 66.6881L144.767 67.3229C145.639 68.3853 146.615 69.3605 147.677 70.2335L148.312 69.4608C149.32 70.2893 150.411 71.0211 151.57 71.642L151.098 72.5235C152.301 73.1676 153.574 73.6982 154.902 74.1008L155.192 73.1437C156.428 73.5182 157.715 73.7762 159.039 73.9051L158.942 74.9004C159.619 74.9663 160.306 75 161 75H163V74H167V75H171V74H175V75H177C177.694 75 178.381 74.9663 179.058 74.9004L178.961 73.9051C180.285 73.7762 181.572 73.5182 182.808 73.1437L183.098 74.1008C184.426 73.6982 185.699 73.1676 186.902 72.5235L186.43 71.642C187.589 71.0211 188.68 70.2893 189.688 69.4608L190.323 70.2335C191.385 69.3605 192.361 68.3853 193.233 67.3229L192.461 66.6881C193.289 65.6797 194.021 64.5888 194.642 63.4296L195.523 63.9018C196.168 62.6991 196.698 61.4263 197.101 60.0976L196.144 59.8077C196.518 58.5718 196.776 57.2854 196.905 55.9611L197.9 56.058C197.966 55.3806 198 54.6941 198 54V52H197V48H198V44H197V40H198V36H197V32H198V28H197V24H198V22C198 21.3059 197.966 20.6194 197.9 19.942L196.905 20.0389C196.776 18.7146 196.518 17.4282 196.144 16.1923L197.101 15.9024C196.698 14.5737 196.168 13.3009 195.523 12.0982L194.642 12.5704C194.021 11.4112 193.289 10.3203 192.461 9.31194L193.233 8.67711C192.361 7.61466 191.385 6.63947 190.323 5.76655L189.688 6.5392C188.68 5.71069 187.589 4.9789 186.43 4.35802L186.902 3.47651C185.699 2.83235 184.426 2.30177 183.098 1.89922L182.808 2.85627C181.572 2.48184 180.285 2.22381 178.961 2.09493L179.058 1.09963C178.381 1.03371 177.694 1 177 1H175V2H171V1H167V2H163V1H161C160.306 1 159.619 1.03371 158.942 1.09963L159.039 2.09493C157.715 2.22381 156.428 2.48184 155.192 2.85626L154.902 1.89922C153.574 2.30177 152.301 2.83235 151.098 3.47651L151.57 4.35802C150.411 4.9789 149.32 5.71069 148.312 6.5392L147.677 5.76655C146.615 6.63947 145.639 7.61466 144.767 8.67711L145.539 9.31194C144.711 10.3203 143.979 11.4112 143.358 12.5704L142.477 12.0982C141.832 13.3009 141.302 14.5737 140.899 15.9024L141.856 16.1923C141.482 17.4282 141.224 18.7146 141.095 20.0389L140.1 19.942C140.034 20.6194 140 21.3059 140 22V24H141V28H140V32H141V36H140V40H141V44H140V48H141V52H140V54Z" fill="#FCFFEA" stroke="black" stroke-width="2" stroke-dasharray="4 4"/>
</svg>
