<svg width="1254" height="572" viewBox="0 0 1254 572" fill="none" xmlns="http://www.w3.org/2000/svg">
<rect width="1254" height="550" rx="30" fill="#D1D99E"/>
<rect x="626" y="9" width="616" height="558" rx="30" fill="#F4FEB8"/>
<rect x="2" y="9" width="621" height="558" rx="30" fill="#F4FEB8"/>
<path d="M642.5 56.5C642.5 58.3679 641.123 60.5717 637.773 62.4514C634.501 64.2864 629.814 65.5 624.5 65.5C619.186 65.5 614.499 64.2864 611.227 62.4514C607.877 60.5717 606.5 58.3679 606.5 56.5C606.5 54.6321 607.877 52.4283 611.227 50.5486C614.499 48.7136 619.186 47.5 624.5 47.5C629.814 47.5 634.501 48.7136 637.773 50.5486C641.123 52.4283 642.5 54.6321 642.5 56.5Z" stroke="#530A0A" stroke-width="5"/>
<rect x="605" y="37" width="39" height="18" rx="9" fill="#F4FEB8"/>
<rect x="623" y="36" width="3" height="27" fill="#D1D99E"/>
<circle cx="640" cy="52" r="3" fill="#530A0A"/>
<circle cx="609" cy="52" r="3" fill="#530A0A"/>
<path d="M642.5 87.5C642.5 89.3679 641.123 91.5717 637.773 93.4514C634.501 95.2864 629.814 96.5 624.5 96.5C619.186 96.5 614.499 95.2864 611.227 93.4514C607.877 91.5717 606.5 89.3679 606.5 87.5C606.5 85.6321 607.877 83.4283 611.227 81.5486C614.499 79.7136 619.186 78.5 624.5 78.5C629.814 78.5 634.501 79.7136 637.773 81.5486C641.123 83.4283 642.5 85.6321 642.5 87.5Z" stroke="#530A0A" stroke-width="5"/>
<rect x="605" y="68" width="39" height="18" rx="9" fill="#F4FEB8"/>
<rect x="623" y="67" width="3" height="27" fill="#D1D99E"/>
<circle cx="640" cy="83" r="3" fill="#530A0A"/>
<circle cx="609" cy="83" r="3" fill="#530A0A"/>
<path d="M642.5 119.5C642.5 121.368 641.123 123.572 637.773 125.451C634.501 127.286 629.814 128.5 624.5 128.5C619.186 128.5 614.499 127.286 611.227 125.451C607.877 123.572 606.5 121.368 606.5 119.5C606.5 117.632 607.877 115.428 611.227 113.549C614.499 111.714 619.186 110.5 624.5 110.5C629.814 110.5 634.501 111.714 637.773 113.549C641.123 115.428 642.5 117.632 642.5 119.5Z" stroke="#530A0A" stroke-width="5"/>
<rect x="605" y="100" width="39" height="18" rx="9" fill="#F4FEB8"/>
<rect x="623" y="99" width="3" height="27" fill="#D1D99E"/>
<circle cx="640" cy="115" r="3" fill="#530A0A"/>
<circle cx="609" cy="115" r="3" fill="#530A0A"/>
<path d="M642.5 151.5C642.5 153.368 641.123 155.572 637.773 157.451C634.501 159.286 629.814 160.5 624.5 160.5C619.186 160.5 614.499 159.286 611.227 157.451C607.877 155.572 606.5 153.368 606.5 151.5C606.5 149.632 607.877 147.428 611.227 145.549C614.499 143.714 619.186 142.5 624.5 142.5C629.814 142.5 634.501 143.714 637.773 145.549C641.123 147.428 642.5 149.632 642.5 151.5Z" stroke="#530A0A" stroke-width="5"/>
<rect x="605" y="132" width="39" height="18" rx="9" fill="#F4FEB8"/>
<rect x="623" y="131" width="3" height="27" fill="#D1D99E"/>
<circle cx="640" cy="147" r="3" fill="#530A0A"/>
<circle cx="609" cy="147" r="3" fill="#530A0A"/>
<path d="M642.5 183.5C642.5 185.368 641.123 187.572 637.773 189.451C634.501 191.286 629.814 192.5 624.5 192.5C619.186 192.5 614.499 191.286 611.227 189.451C607.877 187.572 606.5 185.368 606.5 183.5C606.5 181.632 607.877 179.428 611.227 177.549C614.499 175.714 619.186 174.5 624.5 174.5C629.814 174.5 634.501 175.714 637.773 177.549C641.123 179.428 642.5 181.632 642.5 183.5Z" stroke="#530A0A" stroke-width="5"/>
<rect x="605" y="164" width="39" height="18" rx="9" fill="#F4FEB8"/>
<rect x="623" y="163" width="3" height="27" fill="#D1D99E"/>
<circle cx="640" cy="179" r="3" fill="#530A0A"/>
<circle cx="609" cy="179" r="3" fill="#530A0A"/>
<path d="M642.5 215.5C642.5 217.368 641.123 219.572 637.773 221.451C634.501 223.286 629.814 224.5 624.5 224.5C619.186 224.5 614.499 223.286 611.227 221.451C607.877 219.572 606.5 217.368 606.5 215.5C606.5 213.632 607.877 211.428 611.227 209.549C614.499 207.714 619.186 206.5 624.5 206.5C629.814 206.5 634.501 207.714 637.773 209.549C641.123 211.428 642.5 213.632 642.5 215.5Z" stroke="#530A0A" stroke-width="5"/>
<rect x="605" y="196" width="39" height="18" rx="9" fill="#F4FEB8"/>
<rect x="623" y="195" width="3" height="27" fill="#D1D99E"/>
<circle cx="640" cy="211" r="3" fill="#530A0A"/>
<circle cx="609" cy="211" r="3" fill="#530A0A"/>
<path d="M642.5 247.5C642.5 249.368 641.123 251.572 637.773 253.451C634.501 255.286 629.814 256.5 624.5 256.5C619.186 256.5 614.499 255.286 611.227 253.451C607.877 251.572 606.5 249.368 606.5 247.5C606.5 245.632 607.877 243.428 611.227 241.549C614.499 239.714 619.186 238.5 624.5 238.5C629.814 238.5 634.501 239.714 637.773 241.549C641.123 243.428 642.5 245.632 642.5 247.5Z" stroke="#530A0A" stroke-width="5"/>
<rect x="605" y="228" width="39" height="18" rx="9" fill="#F4FEB8"/>
<rect x="623" y="227" width="3" height="27" fill="#D1D99E"/>
<circle cx="640" cy="243" r="3" fill="#530A0A"/>
<circle cx="609" cy="243" r="3" fill="#530A0A"/>
<path d="M642.5 279.5C642.5 281.368 641.123 283.572 637.773 285.451C634.501 287.286 629.814 288.5 624.5 288.5C619.186 288.5 614.499 287.286 611.227 285.451C607.877 283.572 606.5 281.368 606.5 279.5C606.5 277.632 607.877 275.428 611.227 273.549C614.499 271.714 619.186 270.5 624.5 270.5C629.814 270.5 634.501 271.714 637.773 273.549C641.123 275.428 642.5 277.632 642.5 279.5Z" stroke="#530A0A" stroke-width="5"/>
<rect x="605" y="260" width="39" height="18" rx="9" fill="#F4FEB8"/>
<rect x="623" y="259" width="3" height="27" fill="#D1D99E"/>
<circle cx="640" cy="275" r="3" fill="#530A0A"/>
<circle cx="609" cy="275" r="3" fill="#530A0A"/>
<path d="M642.5 311.5C642.5 313.368 641.123 315.572 637.773 317.451C634.501 319.286 629.814 320.5 624.5 320.5C619.186 320.5 614.499 319.286 611.227 317.451C607.877 315.572 606.5 313.368 606.5 311.5C606.5 309.632 607.877 307.428 611.227 305.549C614.499 303.714 619.186 302.5 624.5 302.5C629.814 302.5 634.501 303.714 637.773 305.549C641.123 307.428 642.5 309.632 642.5 311.5Z" stroke="#530A0A" stroke-width="5"/>
<rect x="605" y="292" width="39" height="18" rx="9" fill="#F4FEB8"/>
<rect x="623" y="291" width="3" height="27" fill="#D1D99E"/>
<circle cx="640" cy="307" r="3" fill="#530A0A"/>
<circle cx="609" cy="307" r="3" fill="#530A0A"/>
<path d="M642.5 343.5C642.5 345.368 641.123 347.572 637.773 349.451C634.501 351.286 629.814 352.5 624.5 352.5C619.186 352.5 614.499 351.286 611.227 349.451C607.877 347.572 606.5 345.368 606.5 343.5C606.5 341.632 607.877 339.428 611.227 337.549C614.499 335.714 619.186 334.5 624.5 334.5C629.814 334.5 634.501 335.714 637.773 337.549C641.123 339.428 642.5 341.632 642.5 343.5Z" stroke="#530A0A" stroke-width="5"/>
<rect x="605" y="324" width="39" height="18" rx="9" fill="#F4FEB8"/>
<rect x="623" y="323" width="3" height="27" fill="#D1D99E"/>
<circle cx="640" cy="339" r="3" fill="#530A0A"/>
<circle cx="609" cy="339" r="3" fill="#530A0A"/>
<path d="M642.5 375.5C642.5 377.368 641.123 379.572 637.773 381.451C634.501 383.286 629.814 384.5 624.5 384.5C619.186 384.5 614.499 383.286 611.227 381.451C607.877 379.572 606.5 377.368 606.5 375.5C606.5 373.632 607.877 371.428 611.227 369.549C614.499 367.714 619.186 366.5 624.5 366.5C629.814 366.5 634.501 367.714 637.773 369.549C641.123 371.428 642.5 373.632 642.5 375.5Z" stroke="#530A0A" stroke-width="5"/>
<rect x="605" y="356" width="39" height="18" rx="9" fill="#F4FEB8"/>
<rect x="623" y="355" width="3" height="27" fill="#D1D99E"/>
<circle cx="640" cy="371" r="3" fill="#530A0A"/>
<circle cx="609" cy="371" r="3" fill="#530A0A"/>
<path d="M642.5 407.5C642.5 409.368 641.123 411.572 637.773 413.451C634.501 415.286 629.814 416.5 624.5 416.5C619.186 416.5 614.499 415.286 611.227 413.451C607.877 411.572 606.5 409.368 606.5 407.5C606.5 405.632 607.877 403.428 611.227 401.549C614.499 399.714 619.186 398.5 624.5 398.5C629.814 398.5 634.501 399.714 637.773 401.549C641.123 403.428 642.5 405.632 642.5 407.5Z" stroke="#530A0A" stroke-width="5"/>
<rect x="605" y="388" width="39" height="18" rx="9" fill="#F4FEB8"/>
<rect x="623" y="387" width="3" height="27" fill="#D1D99E"/>
<circle cx="640" cy="403" r="3" fill="#530A0A"/>
<circle cx="609" cy="403" r="3" fill="#530A0A"/>
<path d="M642.5 439.5C642.5 441.368 641.123 443.572 637.773 445.451C634.501 447.286 629.814 448.5 624.5 448.5C619.186 448.5 614.499 447.286 611.227 445.451C607.877 443.572 606.5 441.368 606.5 439.5C606.5 437.632 607.877 435.428 611.227 433.549C614.499 431.714 619.186 430.5 624.5 430.5C629.814 430.5 634.501 431.714 637.773 433.549C641.123 435.428 642.5 437.632 642.5 439.5Z" stroke="#530A0A" stroke-width="5"/>
<rect x="605" y="420" width="39" height="18" rx="9" fill="#F4FEB8"/>
<rect x="623" y="419" width="3" height="27" fill="#D1D99E"/>
<circle cx="640" cy="435" r="3" fill="#530A0A"/>
<circle cx="609" cy="435" r="3" fill="#530A0A"/>
<path d="M642.5 471.5C642.5 473.368 641.123 475.572 637.773 477.451C634.501 479.286 629.814 480.5 624.5 480.5C619.186 480.5 614.499 479.286 611.227 477.451C607.877 475.572 606.5 473.368 606.5 471.5C606.5 469.632 607.877 467.428 611.227 465.549C614.499 463.714 619.186 462.5 624.5 462.5C629.814 462.5 634.501 463.714 637.773 465.549C641.123 467.428 642.5 469.632 642.5 471.5Z" stroke="#530A0A" stroke-width="5"/>
<rect x="605" y="452" width="39" height="18" rx="9" fill="#F4FEB8"/>
<rect x="623" y="451" width="3" height="27" fill="#D1D99E"/>
<circle cx="640" cy="467" r="3" fill="#530A0A"/>
<circle cx="609" cy="467" r="3" fill="#530A0A"/>
<path d="M642.5 503.5C642.5 505.368 641.123 507.572 637.773 509.451C634.501 511.286 629.814 512.5 624.5 512.5C619.186 512.5 614.499 511.286 611.227 509.451C607.877 507.572 606.5 505.368 606.5 503.5C606.5 501.632 607.877 499.428 611.227 497.549C614.499 495.714 619.186 494.5 624.5 494.5C629.814 494.5 634.501 495.714 637.773 497.549C641.123 499.428 642.5 501.632 642.5 503.5Z" stroke="#530A0A" stroke-width="5"/>
<rect x="605" y="484" width="39" height="18" rx="9" fill="#F4FEB8"/>
<rect x="623" y="483" width="3" height="27" fill="#D1D99E"/>
<circle cx="640" cy="499" r="3" fill="#530A0A"/>
<circle cx="609" cy="499" r="3" fill="#530A0A"/>
<path d="M642.5 535.5C642.5 537.368 641.123 539.572 637.773 541.451C634.501 543.286 629.814 544.5 624.5 544.5C619.186 544.5 614.499 543.286 611.227 541.451C607.877 539.572 606.5 537.368 606.5 535.5C606.5 533.632 607.877 531.428 611.227 529.549C614.499 527.714 619.186 526.5 624.5 526.5C629.814 526.5 634.501 527.714 637.773 529.549C641.123 531.428 642.5 533.632 642.5 535.5Z" stroke="#530A0A" stroke-width="5"/>
<rect x="605" y="516" width="39" height="18" rx="9" fill="#F4FEB8"/>
<rect x="623" y="515" width="3" height="27" fill="#D1D99E"/>
<circle cx="640" cy="531" r="3" fill="#530A0A"/>
<circle cx="609" cy="531" r="3" fill="#530A0A"/>
</svg>
