<svg width="30" height="30" viewBox="0 0 30 30" fill="none" xmlns="http://www.w3.org/2000/svg">
<g clip-path="url(#clip0_59_460)">
<path d="M16.25 0H7.5C5.175 0 3.215 1.595 2.65875 3.75H0.625C0.28 3.75 0 4.03 0 4.375C0 4.72 0.28 5 0.625 5H2.5V9.375H0.625C0.28 9.375 0 9.655 0 10C0 10.345 0.28 10.625 0.625 10.625H2.5V14.375H0.625C0.28 14.375 0 14.655 0 15C0 15.345 0.28 15.625 0.625 15.625H2.5V19.375H0.625C0.28 19.375 0 19.655 0 20C0 20.345 0.28 20.625 0.625 20.625H2.5V25H0.625C0.28 25 0 25.28 0 25.625C0 25.97 0.28 26.25 0.625 26.25H2.65875C3.215 28.405 5.175 30 7.5 30H16.25C19.0075 30 21.25 27.7575 21.25 25V5C21.25 2.2425 19.0075 0 16.25 0ZM20 25C20 27.0675 18.3175 28.75 16.25 28.75H7.5C5.4325 28.75 3.75 27.0675 3.75 25V5C3.75 2.9325 5.4325 1.25 7.5 1.25H16.25C18.3175 1.25 20 2.9325 20 5V25ZM16.25 8.125C16.25 8.47 15.97 8.75 15.625 8.75H8.125C7.78 8.75 7.5 8.47 7.5 8.125C7.5 7.78 7.78 7.5 8.125 7.5H15.625C15.97 7.5 16.25 7.78 16.25 8.125ZM26.875 0C25.1525 0 23.75 1.40125 23.75 3.125V25.3225C23.75 26.475 24.2175 27.6012 25.0312 28.4163L26.4325 29.8175C26.555 29.94 26.715 30 26.875 30C27.035 30 27.195 29.9387 27.3175 29.8175L28.7188 28.4163C29.5338 27.6025 30 26.475 30 25.3225V3.125C30 1.40125 28.5975 0 26.875 0ZM28.75 25.3225C28.75 26.145 28.4163 26.9512 27.835 27.5325L26.875 28.4925L25.915 27.5325C25.3337 26.9512 25 26.1462 25 25.3225V3.125C25 2.09125 25.8412 1.25 26.875 1.25C27.9088 1.25 28.75 2.09125 28.75 3.125V25.3225Z" fill="black"/>
</g>
<defs>
<clipPath id="clip0_59_460">
<rect width="30" height="30" fill="white"/>
</clipPath>
</defs>
</svg>
